<?xml version="1.0" encoding="UTF-8"?>
<svg id="Layer_2" data-name="Layer 2" xmlns="http://www.w3.org/2000/svg" xmlns:xlink="http://www.w3.org/1999/xlink" viewBox="0 0 290.29 234.9">
  <defs>
    <style>
      .cls-1 {
        fill: #231f20;
      }

      .cls-2 {
        fill: url(#New_Gradient_Swatch);
      }
    </style>
    <linearGradient id="New_Gradient_Swatch" data-name="New Gradient Swatch" x1="0" y1="117.45" x2="290.29" y2="117.45" gradientUnits="userSpaceOnUse">
      <stop offset="0" stop-color="#103783"/>
      <stop offset="1" stop-color="#9bafd9"/>
    </linearGradient>
  </defs>
  <g id="Layer_1-2" data-name="Layer 1">
    <g>
      <g>
        <path class="cls-1" d="M74.38,0c13.6,0,25.5,2.09,35.7,6.25,10.2,4.17,18.15,10.26,23.85,18.26,5.7,8.01,8.55,17.6,8.55,28.79,0,10.31-2.42,19.25-7.24,26.81-4.83,7.57-11.08,12.89-18.75,15.96,14.69,2.2,26.92,6.47,36.68,12.83,9.76,6.36,17.05,14.2,21.88,23.52,4.82,9.33,7.24,19.69,7.24,31.09,0,10.75-2.25,20.51-6.74,29.28-4.5,8.78-10.86,16.29-19.08,22.54-8.23,6.25-18.04,11.08-29.45,14.48-11.41,3.4-24.02,5.1-37.83,5.1-10.75,0-20.73-1.1-29.94-3.29-9.21-2.19-17.55-5.43-25-9.71-7.46-4.28-13.77-9.71-18.92-16.29-5.16-6.58-9.05-14.31-11.68-23.19C1.01,173.54-.19,163.62.02,152.65l3.62-.66c1.53,11.63,4.11,21.55,7.73,29.77,3.62,8.22,8.06,15.03,13.32,20.4,5.26,5.38,11.29,9.6,18.09,12.67,6.8,3.07,14.2,5.21,22.21,6.42,8,1.21,16.5,1.81,25.5,1.81,14.69,0,26.98-2.68,36.85-8.06,9.87-5.37,17.38-12.67,22.54-21.88,5.15-9.21,7.73-19.63,7.73-31.25,0-12.72-2.69-23.03-8.06-30.93-5.38-7.9-12.17-13.93-20.4-18.09-8.23-4.16-17-7.02-26.32-8.55-9.32-1.53-17.93-2.3-25.83-2.3l-.33-2.96c5.04,0,9.98-.77,14.8-2.3,4.82-1.53,9.21-4.06,13.16-7.57,3.95-3.51,7.12-8.17,9.54-13.98,2.41-5.81,3.62-12.88,3.62-21.22,0-15.35-4.17-26.43-12.5-33.23-8.34-6.8-20.07-10.2-35.2-10.2h-17.44c0-.22-.28-1.15-.82-2.8-.55-1.65-1.37-4.22-2.47-7.73h25ZM45.1,24.02h-.66c-.22-6.36-2.47-11.4-6.74-15.13-4.28-3.73-9.16-5.59-14.64-5.59h-3.95V0h25.99v24.02ZM65.82,0v222.07h-21.38V0h21.38Z"/>
        <path class="cls-1" d="M240.91,0c-1.1,3.51-1.92,6.09-2.47,7.73-.54,1.65-.82,2.58-.82,2.8h-17.44c-15.13,0-26.86,3.4-35.2,10.2-8.33,6.8-12.5,17.88-12.5,33.23,0,8.34,1.21,15.41,3.62,21.22,2.42,5.81,5.59,10.48,9.54,13.98,3.95,3.51,8.34,6.04,13.16,7.57,4.83,1.54,9.76,2.3,14.8,2.3l-.33,2.96c-7.9,0-16.5.77-25.83,2.3-9.32,1.54-18.09,4.39-26.32,8.55-8.23,4.17-15.02,10.2-20.4,18.09-5.37,7.9-8.06,18.21-8.06,30.93,0,11.63,2.58,22.04,7.73,31.25,5.16,9.21,12.67,16.51,22.54,21.88,9.87,5.38,22.16,8.06,36.85,8.06,9,0,17.49-.6,25.5-1.81,8.01-1.2,15.41-3.34,22.21-6.42,6.8-3.07,12.83-7.29,18.09-12.67,5.26-5.37,9.71-12.17,13.32-20.4,3.62-8.23,6.2-18.15,7.73-29.77l3.62.66c.22,10.97-.99,20.89-3.62,29.77-2.63,8.88-6.52,16.61-11.68,23.19-5.15,6.58-11.46,12.01-18.92,16.29-7.45,4.28-15.79,7.52-25,9.71-9.21,2.19-19.19,3.29-29.94,3.29-13.82,0-26.43-1.7-37.83-5.1-11.4-3.4-21.22-8.23-29.45-14.48-8.22-6.25-14.58-13.76-19.08-22.54-4.49-8.77-6.74-18.53-6.74-29.28,0-11.4,2.42-21.76,7.24-31.09,4.83-9.32,12.12-17.16,21.88-23.52,9.76-6.36,21.99-10.64,36.68-12.83-7.67-3.07-13.93-8.39-18.75-15.96-4.82-7.57-7.24-16.5-7.24-26.81,0-11.19,2.85-20.78,8.55-28.79,5.71-8,13.65-14.09,23.85-18.26,10.2-4.16,22.1-6.25,35.7-6.25h25ZM245.85,0v222.07h-21.38V0h21.38ZM245.19,0h25.99v3.29h-3.95c-5.48,0-10.36,1.87-14.64,5.59-4.28,3.73-6.52,8.77-6.74,15.13h-.66V0Z"/>
      </g>
      <g>
        <path class="cls-2" d="M74.38,0c13.6,0,25.5,2.09,35.7,6.25,10.2,4.17,18.15,10.26,23.85,18.26,5.7,8.01,8.55,17.6,8.55,28.79,0,10.31-2.42,19.25-7.24,26.81-4.83,7.57-11.08,12.89-18.75,15.96,14.69,2.2,26.92,6.47,36.68,12.83,9.76,6.36,17.05,14.2,21.88,23.52,4.82,9.33,7.24,19.69,7.24,31.09,0,10.75-2.25,20.51-6.74,29.28-4.5,8.78-10.86,16.29-19.08,22.54-8.23,6.25-18.04,11.08-29.45,14.48-11.41,3.4-24.02,5.1-37.83,5.1-10.75,0-20.73-1.1-29.94-3.29-9.21-2.19-17.55-5.43-25-9.71-7.46-4.28-13.77-9.71-18.92-16.29-5.16-6.58-9.05-14.31-11.68-23.19C1.01,173.54-.19,163.62.02,152.65l3.62-.66c1.53,11.63,4.11,21.55,7.73,29.77,3.62,8.22,8.06,15.03,13.32,20.4,5.26,5.38,11.29,9.6,18.09,12.67,6.8,3.07,14.2,5.21,22.21,6.42,8,1.21,16.5,1.81,25.5,1.81,14.69,0,26.98-2.68,36.85-8.06,9.87-5.37,17.38-12.67,22.54-21.88,5.15-9.21,7.73-19.63,7.73-31.25,0-12.72-2.69-23.03-8.06-30.93-5.38-7.9-12.17-13.93-20.4-18.09-8.23-4.16-17-7.02-26.32-8.55-9.32-1.53-17.93-2.3-25.83-2.3l-.33-2.96c5.04,0,9.98-.77,14.8-2.3,4.82-1.53,9.21-4.06,13.16-7.57,3.95-3.51,7.12-8.17,9.54-13.98,2.41-5.81,3.62-12.88,3.62-21.22,0-15.35-4.17-26.43-12.5-33.23-8.34-6.8-20.07-10.2-35.2-10.2h-17.44c0-.22-.28-1.15-.82-2.8-.55-1.65-1.37-4.22-2.47-7.73h25ZM45.1,24.02h-.66c-.22-6.36-2.47-11.4-6.74-15.13-4.28-3.73-9.16-5.59-14.64-5.59h-3.95V0h25.99v24.02ZM65.82,0v222.07h-21.38V0h21.38Z"/>
        <path class="cls-2" d="M240.91,0c-1.1,3.51-1.92,6.09-2.47,7.73-.54,1.65-.82,2.58-.82,2.8h-17.44c-15.13,0-26.86,3.4-35.2,10.2-8.33,6.8-12.5,17.88-12.5,33.23,0,8.34,1.21,15.41,3.62,21.22,2.42,5.81,5.59,10.48,9.54,13.98,3.95,3.51,8.34,6.04,13.16,7.57,4.83,1.54,9.76,2.3,14.8,2.3l-.33,2.96c-7.9,0-16.5.77-25.83,2.3-9.32,1.54-18.09,4.39-26.32,8.55-8.23,4.17-15.02,10.2-20.4,18.09-5.37,7.9-8.06,18.21-8.06,30.93,0,11.63,2.58,22.04,7.73,31.25,5.16,9.21,12.67,16.51,22.54,21.88,9.87,5.38,22.16,8.06,36.85,8.06,9,0,17.49-.6,25.5-1.81,8.01-1.2,15.41-3.34,22.21-6.42,6.8-3.07,12.83-7.29,18.09-12.67,5.26-5.37,9.71-12.17,13.32-20.4,3.62-8.23,6.2-18.15,7.73-29.77l3.62.66c.22,10.97-.99,20.89-3.62,29.77-2.63,8.88-6.52,16.61-11.68,23.19-5.15,6.58-11.46,12.01-18.92,16.29-7.45,4.28-15.79,7.52-25,9.71-9.21,2.19-19.19,3.29-29.94,3.29-13.82,0-26.43-1.7-37.83-5.1-11.4-3.4-21.22-8.23-29.45-14.48-8.22-6.25-14.58-13.76-19.08-22.54-4.49-8.77-6.74-18.53-6.74-29.28,0-11.4,2.42-21.76,7.24-31.09,4.83-9.32,12.12-17.16,21.88-23.52,9.76-6.36,21.99-10.64,36.68-12.83-7.67-3.07-13.93-8.39-18.75-15.96-4.82-7.57-7.24-16.5-7.24-26.81,0-11.19,2.85-20.78,8.55-28.79,5.71-8,13.65-14.09,23.85-18.26,10.2-4.16,22.1-6.25,35.7-6.25h25ZM245.85,0v222.07h-21.38V0h21.38ZM245.19,0h25.99v3.29h-3.95c-5.48,0-10.36,1.87-14.64,5.59-4.28,3.73-6.52,8.77-6.74,15.13h-.66V0Z"/>
      </g>
    </g>
  </g>
</svg>