<?xml version="1.0" encoding="UTF-8"?>
<svg id="Layer_2" data-name="Layer 2" xmlns="http://www.w3.org/2000/svg" viewBox="0 0 72.41 72.41">
  <defs>
    <style>
      .cls-1 {
        fill: #fff;
      }

      .cls-2 {
        fill: #d2ab67;
      }
    </style>
  </defs>
  <g id="Layer_1-2" data-name="Layer 1">
    <g>
      <path class="cls-2" d="m72.41,36.21c0,20-16.21,36.21-36.21,36.21S0,56.2,0,36.21,16.21,0,36.21,0s36.21,16.21,36.21,36.21Z"/>
      <g>
        <path class="cls-1" d="m55.37,19.24c-.08-.05-.22-.02-.33-.02-2.37,0-4.75,0-7.12,0-1.09,0-1.08,0-1.44.99-1.42,3.88-2.85,7.75-4.28,11.62-1.21,3.28-2.42,6.56-3.63,9.84h0c-.28.77-.57,1.54-.85,2.31-.29.79-.59,1.58-.91,2.46-.12-.23-.2-.37-.26-.51-.62-1.52-1.23-3.05-1.84-4.57-1.54-3.79-3.09-7.58-4.64-11.37h0c-.06-.14-.11-.27-.17-.41-1.35-3.32-2.71-6.63-4.05-9.95-.12-.3-.26-.43-.62-.43-2.63.02-5.25,0-7.88,0h-.43v.45c.2,0,.38,0,.55.03.61.09,1.22.17,1.82.26h0s.06,0,.16.03c.31.05.62.11.93.19.16.04.31.09.45.15.11.04.2.08.27.12,0,0,0,0,0,0,.05.03.09.06.14.08.38.23.78.45,1.21.99,0,3.77,0,21.1,0,23.05,0,.98-.03,1.96-.14,2.94-.15,1.43-.8,2.6-2.31,3.07-.8.25-1.66.29-2.5.43-.17.03-.38-.04-.39.24,0,.29.21.24.38.24,3.83,0,7.65,0,11.48,0,.17,0,.38.06.38-.23,0-.28-.21-.23-.38-.25-.8-.08-1.62-.12-2.41-.27-1.6-.3-2.84-1.09-3.21-2.72-.19-.85-.29-1.73-.29-2.59-.01-2.07-.02-17.65-.03-22.93.04.08.08.16.12.25.01.03.02.05.03.07.54,1.12,1,2.23,1.46,3.35,1.7,4.19,3.41,8.38,5.11,12.57.1.25.2.49.3.74h0c1.57,3.85,3.14,7.71,4.71,11.56.09.21.14.46.5.44.35-.01.36-.25.44-.45.61-1.68,1.22-3.37,1.83-5.05,1.44-3.94,2.89-7.87,4.33-11.81h0c.07-.19.13-.37.2-.55,1.33-3.62,2.66-7.25,4-10.87.26-.7.52-1.4.78-2.1.04,0,.09.02.13.03v.43c0,6.85,0,2.11,0,8.96h.02v15.42c0,11.09-1.33,13.37-4.13,16.21-.39.39-.99.9-1.5,1.2-.39.26-.6.39-.6.64,0,.17.17.26.3.26s.21-.04.3-.08c.43-.22,1.12-.69,1.68-1.08,3.48-2.41,5.37-4.43,6.28-6.58,1.29-3.05,1.29-5.72,1.29-12.68v-13.32h0c0-.5,0-.91,0-1.25,0-1.67,0-2.27,0-3.36h0c0-.32,0-.69,0-1.14,0-.75.04-1.5.12-2.25.13-1.33.77-1.98,2.14-2.18.77-.11,1.55-.15,2.33-.23.11-.01.23-.1.29-.19.03-.05-.05-.21-.12-.25Z"/>
        <path class="cls-1" d="m41.07,64.17c-.31,0-.65-.23-.65-.6,0-.43.31-.63.7-.89l.06-.04c.52-.31,1.11-.81,1.45-1.16,2.57-2.61,4.03-4.64,4.03-15.96v-15.08l-.03-.34v-4.4c0-.5,0-.87,0-3.46-.08.22-.16.44-.25.66-1.33,3.62-2.67,7.25-4,10.87l-.2.55c-1.44,3.94-2.89,7.87-4.33,11.81-.3.83-.6,1.66-.9,2.49-.31.85-.62,1.71-.93,2.56l-.02.07c-.06.19-.18.59-.72.6h0c-.57,0-.73-.4-.8-.6l-.02-.06c-1.58-3.85-3.15-7.71-4.71-11.56l-5.41-13.31c-.33-.81-.63-1.54-.94-2.24,0,1.93,0,4.52,0,7.24,0,6,.01,12.81.02,14.12,0,.86.1,1.71.28,2.52.3,1.34,1.26,2.14,2.94,2.46.53.1,1.09.15,1.64.2.25.02.49.04.74.07.02,0,.04,0,.07,0,.51.02.62.33.62.58,0,.36-.22.58-.58.58h-.15s-5.74,0-5.74,0h-5.74s-.14,0-.14,0c-.07,0-.27,0-.43-.16-.1-.11-.16-.25-.15-.43,0-.25.11-.55.61-.57.02,0,.05,0,.07,0,.26-.04.52-.07.77-.11.59-.07,1.15-.15,1.68-.31,1.23-.38,1.91-1.29,2.07-2.78.09-.85.13-1.77.14-2.9,0-1.37,0-10.35,0-16.87v-6.06c-.32-.39-.62-.57-.94-.76l-.16-.1s-.04-.03-.06-.04c-.05-.03-.1-.06-.23-.1-.16-.06-.29-.11-.42-.14-.32-.08-.63-.14-.91-.18l-.16-.03c-.33-.05-.66-.1-1-.15-.28-.04-.55-.08-.82-.12-.11-.02-.21-.02-.32-.02-.06,0-.13,0-.19,0l-.33-.02v-1.12h4.56c1.36,0,2.72,0,4.09,0,.6,0,.82.33.95.64,1.11,2.74,2.22,5.47,3.34,8.2l2.49,6.09c1.01,2.48,2.02,4.96,3.03,7.44.35.86.69,1.71,1.04,2.57.24.59.47,1.17.71,1.76l.03-.07c.21-.56.41-1.09.6-1.62l5.23-14.21c1.18-3.19,2.35-6.38,3.53-9.58.41-1.13.55-1.22,1.77-1.22h7.19c.12,0,.26-.02.43.07.15.09.25.26.28.4.04.16,0,.27-.04.33-.11.18-.34.32-.54.35-.31.03-.62.06-.94.09-.46.04-.93.08-1.38.14-1.21.18-1.73.7-1.85,1.87-.08.76-.11,1.51-.12,2.22v.79h0v.34c0,1.08,0,1.68,0,3.36v1.6s0,0,0,0v12.97c0,7.06,0,9.7-1.32,12.82-.94,2.25-2.92,4.32-6.4,6.73-.63.44-1.28.88-1.72,1.1-.1.05-.25.12-.46.12Zm6.25-34.42l.02.34v15.42c0,11.01-1.29,13.47-4.23,16.45-.4.39-1.02.93-1.58,1.26l-.04.03c-.08.05-.16.1-.22.15.43-.23,1.14-.72,1.57-1.02,3.37-2.33,5.27-4.31,6.16-6.43,1.26-2.99,1.26-5.59,1.26-12.55v-14.57c0-1.49,0-2.13,0-3.02v-.34s0-1.14,0-1.14c0-.73.04-1.5.12-2.29.15-1.48.92-2.27,2.44-2.49.03,0,.06,0,.09-.01h-5q-.84,0-1.11.75s0,0,0,0l.52.11v.71c0,3.6,0,4,0,4.56v4.06Zm-12.12,21.4s.02,0,.06,0c.05,0,.07,0,.07,0,0,0,.02-.07.04-.11.01-.04.02-.07.04-.11.31-.85.62-1.7.93-2.56.15-.42.3-.83.45-1.25l-.37-.72c-.07-.13-.12-.23-.16-.34-.27-.67-.54-1.33-.81-2-.34-.86-.69-1.71-1.04-2.57-1.01-2.48-2.02-4.96-3.03-7.44l-2.49-6.09c-1.12-2.73-2.23-5.47-3.34-8.21-.08-.19-.11-.21-.3-.21-1.37,0-2.73.01-4.1.01h-2.19s.04,0,.06,0h0s.52.08.52.08c.28.05.61.11.95.19.16.04.32.09.49.16.14.05.24.1.32.15.02,0,.06.03.09.06l.14.09c.36.21.76.46,1.18.98v-.26l.65,1.32c.04.08.08.17.12.26l.02.05c.52,1.09.96,2.14,1.47,3.39l5.41,13.31c1.57,3.85,3.14,7.71,4.71,11.56l.03.07c.02.05.05.13.07.15h0Zm-16.12,0h4.16s3.65,0,3.65,0c-.12-.02-.25-.04-.37-.06-1.95-.37-3.12-1.37-3.48-2.98-.14-.62-.23-1.25-.27-1.9-.02.48-.06.93-.1,1.36-.19,1.76-1.05,2.9-2.55,3.36-.34.1-.68.17-1.03.23Z"/>
      </g>
    </g>
  </g>
</svg>